<svg data-v-0dd9719b="" 
  version="1.0" 
  xmlns="http://www.w3.org/2000/svg" 
  xmlns:xlink="http://www.w3.org/1999/xlink"
  height="104.68px" 
  viewBox="0 0 216.67948717948715 79.92307692307692" 
  preserveAspectRatio="xMidYMid meet"
  color-interpolation-filters="sRGB" style="margin: auto;">
  <g data-v-0dd9719b="" fill="#fff" class="icon-text-wrapper icon-svg-group iconsvg">
    <g class="iconsvg-imagesvg" transform="translate(0,0)"><g>
    <rect fill="#fff" fill-opacity="0" stroke-width="2" x="0" y="0" width="78.00000000000007" height="79.10830738648471" class="image-rect"></rect>
    <svg x="0" y="0" width="78.00000000000007" height="79.10830738648471" filtersec="colorsb3545539008" class="image-svg-svg primary" style="overflow: visible;">
      <svg xmlns="http://www.w3.org/2000/svg" viewBox="0 0 61.95000076293945 62.83000183105469">
        <path fill="#FF7F00" d="M35.89 14.58l4.72-4.8 21.34 21.63-30.98 31.42-12.13-12.31 4.66-4.85 4.73 4.8 2.74 2.77L52.5 31.41 40.62 19.37l-4.73-4.79z"></path>
        <path fill="#FF0000" d="M23.5 45.67l16.6-17.25 4.85 4.66-16.72 17.39-4.73-4.8zM21.19 29.52l14.7-14.94 4.73 4.79-14.63 14.86-4.8-4.71z"></path>
        <path fill="#FF7F00" d="M33.28 11.93l-2.31-2.34L9.45 31.41l10.8 10.96-4.8 4.72L0 31.41 30.97 0l7.11 7.21-4.8 4.72z"></path>
      </svg>
    </svg>
    </g>
    </g>
    <g transform="translate(84,17.394702911376953)">
      <g data-gra="path-name" fill-rule="" class="tp-name iconsvg-namesvg" transform="translate(0,0)">
        <g transform="scale(0.7599999999999998)">
          <g>
          <path d="M17.25-31.07L23.72-31.07 23.28-27.46 5.81-27.46 6.21-31.07 12.94-31.07 12.06-34.68 16.28-34.68 17.25-31.07ZM24.25-12.94L26.01-28.3Q26.19-29.88 26.82-30.63 27.46-31.38 28.87-31.56L28.87-31.56Q30.63-31.78 34.5-32.48L34.5-32.48Q37.28-33.01 41.28-33.93L41.28-33.93 40.8-29.75Q35.96-28.61 30.19-27.9L30.19-27.9 29.4-21.48 41.55-21.48 41.11-17.65 37.63-17.65 35.43 3.21 31.42 3.21 33.62-17.65 28.96-17.65 28.39-12.85Q27.9-8.41 26.49-3.65L26.49-3.65Q25.13 1.06 23.63 3.48L23.63 3.48 19.67 2.29Q20.95 0.04 21.65-1.89L21.65-1.89 18.31-1.89 16.68-9.2 20.2-9.2 21.83-2.29Q23.59-6.87 24.25-12.94L24.25-12.94ZM23.63-21.65L23.24-18.04 16.02-18.04 15.67-14.57 22.22-14.57 21.74-10.87 15.27-10.87 14.13 0.13Q13.69 3.34 10.83 3.12L10.83 3.12Q8.1 2.86 6.03 2.38L6.03 2.38 6.51-1.41Q7.75-1.06 9.37-0.84L9.37-0.84Q9.51-0.79 9.68-0.79L9.68-0.79Q10.03-0.79 10.17-1.41L10.17-1.41 11.18-10.87 3.96-10.87 4.4-14.57 11.57-14.57 11.97-18.04 3.87-18.04 4.36-21.65 9.07-21.65 7.92-26.45 11.4-26.45 12.67-21.65 16.06-21.65 17.96-26.45 21.52-26.45 19.72-21.65 23.63-21.65ZM1.63-0.97L5.41-9.24 9.15-9.24 5.59-0.97 1.63-0.97ZM83-33.1L82.56-30.1 68.61-30.1 68.44-28.69 81.07-28.69Q82.91-28.69 83.73-28.12 84.54-27.55 84.54-26.23L84.54-26.23Q84.54-25.75 84.5-25.48L84.5-25.48 84.01-21.48 79.97-21.48 80.45-25.61 53.96-25.61 53.43-21.48 49.38-21.48 49.86-25.61Q50.08-27.29 50.83-27.99 51.58-28.69 53.21-28.69L53.21-28.69 64.39-28.69 65.13-34.77 69.18-34.77 68.96-33.1 83-33.1ZM55.89-23.77L78.25-23.77 77.94-20.95 55.54-20.95 55.89-23.77ZM52.46-15.76L46.91-15.76 54.22-19.8 59.5-19.8 52.46-15.76ZM85.95-15.8L80.41-15.8 73.41-19.8 78.65-19.8 85.95-15.8ZM79.31-11.18L79.31-11.09 77.72 2.73 51.67 2.73 53.38-11.22 49.91-9.33 46.25-11.05 59.81-18.35Q60.56-18.79 61.02-18.97 61.48-19.14 62.1-19.14L62.1-19.14 70.99-19.14Q71.69-19.14 72.15-18.95 72.62-18.75 73.23-18.26L73.23-18.26 85.95-11.31 82.96-9.07 79.31-11.18ZM73.85-14.35L70.59-16.24 62.41-16.24 58.97-14.35 73.85-14.35ZM74.99-9.37L75.21-11.27 57.48-11.27 57.26-9.37 74.99-9.37ZM74.46-4.84L74.68-6.73 56.95-6.73 56.77-4.84 74.46-4.84ZM56.46-2.2L56.29-0.35 73.94-0.35 74.16-2.2 56.46-2.2ZM128.6-9.42L124.02-8.8 122.74 3.39 118.61 3.39 119.84-8.23 107.56-6.56 107.91-10.65 120.28-12.37 122.66-34.33 126.79-34.33 124.46-12.94 129.08-13.6 128.6-9.42ZM108.92-12.72L105.62-10.39 104.44-12.1 102.85-14.39 101.05 3.34 96.87 3.34 98.45-12.32Q96.12-8.8 93.21-5.46L93.21-5.46 89.91-7.92Q92.2-10.25 94.56-13.2 96.91-16.15 98.8-19.28L98.8-19.28 92.73-19.28 93.17-23.15 99.51-23.15 100.03-28.47Q95.72-28.03 94.09-27.9L94.09-27.9 94.62-31.82Q99.11-32.3 102.5-32.77 105.89-33.23 109.41-33.89L109.41-33.89 108.92-29.79Q107.38-29.49 104.35-29.05L104.35-29.05 103.73-23.15 108.92-23.15 108.44-19.28 103.33-19.28 103.33-19.1Q106.24-16.06 108.92-12.72L108.92-12.72ZM119.57-27.51L119.05-23.11 112.05-27.37 112.62-31.56 119.57-27.51ZM117.9-13.91L110.6-18.4 111.12-22.49 118.43-18.18 117.9-13.91ZM139.91 2.9Q137.27 2.6 134.76 1.32L134.76 1.32 135.29-2.73Q137-1.94 138.89-1.58L138.89-1.58Q139.03-1.54 139.29-1.54L139.29-1.54Q139.56-1.54 139.67-1.69 139.78-1.85 139.86-2.24L139.86-2.24 141.01-11.79 135.59-10.17 136.17-14.7Q138.81-15.32 141.54-16.15L141.54-16.15 142.46-23.81 137.31-23.81 137.79-27.86 142.94-27.86 143.78-34.81 147.96-34.81 147.12-27.86 151.17-27.86 150.69-23.81 146.64-23.81 145.89-17.6Q146.6-17.82 148-18.35L148-18.35 150.12-19.14 149.63-14.66 145.36-13.2 143.87-0.35Q143.65 1.23 142.77 2.09 141.89 2.95 140.57 2.95L140.57 2.95Q140.13 2.95 139.91 2.9L139.91 2.9ZM173.31-28.56L172.83-24.51 164.11-24.51 163.5-19.36 168.47-19.36Q170.71-19.36 171.37-17.87L171.37-17.87Q171.55-17.47 171.55-16.86L171.55-16.86Q171.55-15.71 170.85-14.35L170.85-14.35Q168.43-9.55 163.85-5.24L163.85-5.24Q167.59-1.72 172.87 1.67L172.87 1.67 168.6 3.83Q164.02 0.84 160.77-2.6L160.77-2.6Q156.63 0.66 150.6 3.43L150.6 3.43 146.77 0.88Q153.2-1.85 158.08-5.68L158.08-5.68Q154.43-10.25 152.63-15.4L152.63-15.4 150.91-15.4 151.39-19.36 159.23-19.36 159.84-24.51 151.83-24.51 152.27-28.56 160.33-28.56 161.03-34.68 165.3-34.68 164.6-28.56 173.31-28.56ZM165.17-15.4L156.85-15.4Q158.39-11.57 161.03-8.27L161.03-8.27Q163.98-11.09 165.83-14.44L165.83-14.44Q166.09-14.92 166.09-15.1L166.09-15.1Q166.09-15.27 165.85-15.34 165.61-15.4 165.17-15.4L165.17-15.4Z"
                                                                                                                                                                                                                                                                                                                                                                                                                                                                                                                                                                                                                                                                                                                                                                                                                                                                                                                                                                                                                                                                                                                                                                                                                                                                                                                                                                                                                                                                                                                                                                                                                                                                                                                                                                                                                                                                                                                                                                                                                                                                                                                                                                                                                                                                                                                                                                                                                                                                                                                                                                                                                                                                                                                                                                                                                                                                                                                                                                                                                                                                                                                                                                                                                                                                                                                                                                                                                                                                                                                                                                                                                                                                                                                                                                                                                                                                                                                                                                                                                                                                                                                                                                                                                                                                                                                                                                                                                      transform="translate(-1.6299999952316284, 34.810001373291016)"></path>
          </g>
        
        </g>
      </g>
      <g data-gra="path-slogan" fill-rule="" class="tp-slogan iconsvg-slogansvg" fill="#fff"
                  transform="translate(1.6483955383300781,35.36639976501465)">
        <g transform="scale(1, 1)">
          <g transform="scale(1)">
          <path d="M7.64-8.58L4.73-4.41L7.78 0L6.33 0L3.98-3.52L1.64 0L0.23 0L3.33-4.41L0.42-8.58L1.88-8.58L4.03-5.30L6.23-8.58L7.64-8.58ZM9.05-8.58L10.22-8.58L10.22 0L9.05 0L9.05-8.58ZM13.59-8.58L17.91-1.64L17.91-8.58L19.03-8.58L19.03 0L17.72 0L13.36-6.94L13.31-6.94L13.31 0L12.19 0L12.19-8.58L13.59-8.58ZM24.94-3.70L22.13-3.70L22.13 0L20.95 0L20.95-8.58L24.94-8.58Q27.80-8.58 27.80-6.28L27.80-6.28Q27.80-4.88 26.58-4.22L26.58-4.22Q27.61-3.94 27.61-2.58L27.61-2.58L27.70-1.03Q27.66-0.38 28.13-0.19L28.13-0.19L28.13 0L26.67 0Q26.53-0.61 26.48-2.16L26.48-2.16Q26.53-3.70 24.94-3.70L24.94-3.70ZM25.03-7.64L22.13-7.64L22.13-4.69L24.84-4.69Q26.58-4.69 26.58-6.19L26.58-6.19Q26.58-7.64 25.03-7.64L25.03-7.64ZM35.11-3.19L35.11-8.58L36.28-8.58L36.28-3.05Q36.14 0.05 32.77 0.14L32.77 0.14Q29.63 0.05 29.48-2.86L29.48-2.86L29.48-8.58L30.66-8.58L30.66-3.19Q30.70-0.84 32.81-0.80L32.81-0.80Q35.11-0.84 35.11-3.19L35.11-3.19ZM38.25-8.58L39.42-8.58L39.42 0L38.25 0L38.25-8.58ZM46.92-7.59L44.02-7.59L44.02-8.58L50.95-8.58L50.95-7.59L48.05-7.59L48.05 0L46.92 0L46.92-7.59ZM53.30-1.03L58.45-1.03L58.45 0L52.13 0L52.13-8.58L58.36-8.58L58.36-7.59L53.30-7.59L53.30-4.92L57.98-4.92L57.98-3.89L53.30-3.89L53.30-1.03ZM67.13-6.05L67.13-6.05L66-6.05Q65.58-7.78 63.61-7.83L63.61-7.83Q60.89-7.69 60.80-4.36L60.80-4.36Q60.80-0.80 63.66-0.80L63.66-0.80Q65.63-0.84 66.09-3.19L66.09-3.19L67.22-3.19Q66.70 0.05 63.42 0.14L63.42 0.14Q59.67 0 59.58-4.31L59.58-4.31Q59.77-8.63 63.61-8.81L63.61-8.81Q66.66-8.72 67.13-6.05ZM69.75-5.06L74.25-5.06L74.25-8.58L75.42-8.58L75.42 0L74.25 0L74.25-3.98L69.75-3.98L69.75 0L68.58 0L68.58-8.58L69.75-8.58L69.75-5.06ZM78.61-8.58L82.92-1.64L82.92-8.58L84.05-8.58L84.05 0L82.73 0L78.38-6.94L78.33-6.94L78.33 0L77.20 0L77.20-8.58L78.61-8.58ZM92.63-4.27L92.63-4.27Q92.44-7.64 89.63-7.83L89.63-7.83Q86.77-7.69 86.63-4.27L86.63-4.27Q86.77-0.94 89.63-0.80L89.63-0.80Q92.44-0.98 92.63-4.27ZM93.80-4.27L93.80-4.27Q93.52 0 89.63 0.14L89.63 0.14Q85.69 0 85.41-4.27L85.41-4.27Q85.64-8.72 89.63-8.81L89.63-8.81Q93.52-8.67 93.80-4.27ZM95.16-8.58L96.33-8.58L96.33-1.03L100.69-1.03L100.69 0L95.16 0L95.16-8.58ZM108.61-4.27L108.61-4.27Q108.42-7.64 105.61-7.83L105.61-7.83Q102.75-7.69 102.61-4.27L102.61-4.27Q102.75-0.94 105.61-0.80L105.61-0.80Q108.42-0.98 108.61-4.27ZM109.78-4.27L109.78-4.27Q109.50 0 105.61 0.14L105.61 0.14Q101.67 0 101.39-4.27L101.39-4.27Q101.63-8.72 105.61-8.81L105.61-8.81Q109.50-8.67 109.78-4.27ZM117.56-3.61L114.94-3.61L114.94-4.59L118.69-4.59L118.69 0L117.94 0L117.66-1.08Q116.67 0.09 114.84 0.14L114.84 0.14Q113.11 0.14 112.17-0.75L112.17-0.75Q110.77-2.06 110.81-4.36L110.81-4.36Q111.14-8.63 114.89-8.81L114.89-8.81Q118.08-8.63 118.55-6L118.55-6L117.42-6Q116.95-7.78 114.84-7.83L114.84-7.83Q112.17-7.64 112.03-4.31L112.03-4.31Q112.03-0.75 114.89-0.75L114.89-0.75Q115.92-0.75 116.67-1.31L116.67-1.31Q117.61-2.06 117.56-3.61L117.56-3.61ZM127.41-8.58L124.17-3.47L124.17 0L123 0L123-3.47L119.77-8.58L121.13-8.58L123.56-4.45L126.05-8.58L127.41-8.58Z"
                                                                                                                                                                                                                                                                                                                                                                                                                                                                                                                                                                                                                                                                                                                                                                                                                                                                                                                                                                                                                                                                                                                                                                                                                                                                                                                                                                                                                                                                                                                                                                                                                                                                                                                                                                                                                                                                                                                                                                                                                                                                                                                                                                                                                                                                                                                                                                                                                                                                                                                                                                                                                                                                                                                                                                                                                                                                                                                                                                                                                                                                            transform="translate(-0.234375, 8.8125)"></path>
          </g>
        </g>
      </g>
    </g>
  </g>
</svg>
